<?xml version="1.0" standalone="no"?>
<!DOCTYPE svg PUBLIC "-//W3C//DTD SVG 20010904//EN"
 "http://www.w3.org/TR/2001/REC-SVG-20010904/DTD/svg10.dtd">
<svg version="1.0" xmlns="http://www.w3.org/2000/svg"
 width="490.000000pt" height="490.000000pt" viewBox="0 0 490.000000 490.000000"
 preserveAspectRatio="xMidYMid meet">
<metadata>
Created by potrace 1.11, written by Peter Selinger 2001-2013
</metadata>
<g transform="translate(0.000000,490.000000) scale(0.100000,-0.100000)"
fill="#000000" stroke="none">
<path d="M610 2886 l0 -2011 1139 0 c1002 0 1138 2 1128 15 -7 8 -60 64 -118
125 -106 110 -148 154 -287 299 l-72 76 -634 0 -634 0 -1 1658 c0 911 0 1700
-1 1753 l0 96 -260 0 -260 1 0 -2012z"/>
<path d="M3504 4846 c-26 -28 -81 -87 -123 -132 -42 -44 -119 -127 -171 -184
-52 -56 -108 -117 -125 -135 -16 -17 -82 -88 -145 -156 -63 -68 -142 -153
-176 -189 -33 -36 -89 -96 -125 -135 -35 -38 -75 -81 -89 -96 -14 -14 -74 -79
-135 -145 -192 -207 -209 -225 -250 -269 -36 -38 -202 -216 -272 -292 -172
-186 -205 -222 -206 -226 -1 -2 39 -48 88 -102 50 -54 97 -106 106 -116 15
-17 181 -199 204 -223 10 -10 65 -70 204 -222 31 -33 97 -105 148 -160 50 -54
104 -112 119 -129 15 -16 72 -79 128 -140 56 -60 121 -132 146 -159 25 -27 54
-59 65 -71 11 -11 45 -48 75 -81 30 -33 99 -107 152 -165 53 -57 105 -113 115
-125 10 -12 59 -66 110 -120 50 -54 112 -121 137 -149 l45 -50 348 -1 c191 0
352 1 356 4 8 4 -10 24 -132 158 -31 33 -96 105 -146 160 -49 54 -117 128
-150 164 -33 35 -64 69 -70 76 -30 34 -233 255 -325 355 -14 15 -59 64 -100
110 -41 45 -88 97 -105 115 -16 18 -66 72 -110 120 -44 49 -156 172 -250 274
-93 102 -213 232 -265 290 -52 57 -112 122 -132 144 l-36 40 25 31 c24 28 164
182 223 244 14 14 65 71 115 126 49 55 97 107 105 115 8 8 37 40 64 70 28 30
79 87 115 126 79 84 122 132 261 284 57 63 120 132 140 154 19 21 44 48 55 60
11 12 63 69 115 126 52 57 100 108 105 114 155 172 195 215 220 242 17 17 66
71 110 120 44 48 101 111 127 139 26 27 48 53 48 56 0 3 -155 6 -345 6 l-344
0 -47 -51z"/>
<path d="M675 680 l-50 -5 -1 -327 c-2 -318 -1 -326 18 -331 43 -12 265 -5
327 9 197 46 293 166 286 357 -5 116 -63 205 -167 258 -78 40 -245 56 -413 39z
m275 -75 c125 -28 200 -119 200 -243 -1 -149 -83 -244 -235 -271 -60 -11 -184
-12 -186 -1 -1 3 -2 121 -3 262 l-1 257 25 3 c43 6 163 2 200 -7z"/>
<path d="M1409 682 l-27 -3 2 -332 1 -331 40 -2 c22 0 45 1 50 3 7 2 10 118
10 335 l0 331 -25 1 c-14 1 -37 0 -51 -2z"/>
<path d="M1895 674 c-120 -29 -208 -97 -254 -194 -21 -46 -26 -69 -25 -140 0
-72 4 -94 27 -142 34 -70 99 -129 176 -160 49 -20 73 -22 196 -22 92 1 156 6
185 16 l45 14 3 161 2 162 -130 0 -131 0 3 -37 3 -37 77 0 76 0 0 -97 -1 -98
-31 -9 c-17 -4 -68 -7 -114 -5 -68 2 -94 7 -140 31 -99 49 -149 141 -139 254
14 153 124 241 302 241 44 0 100 -5 124 -12 49 -13 61 -7 64 35 2 27 -1 30
-48 40 -73 17 -200 16 -270 -1z"/>
<path d="M2418 682 c-10 -2 -18 -11 -19 -20 -1 -22 -1 -635 0 -642 1 -3 23 -6
51 -5 l50 0 0 333 c0 258 -3 332 -12 333 -7 0 -22 2 -33 3 -11 1 -28 0 -37 -2z"/>
<path d="M2604 682 c-18 -3 -22 -9 -20 -39 l1 -36 115 -1 115 -1 1 -281 c0
-155 3 -288 6 -296 4 -10 20 -14 50 -14 l43 1 3 296 2 297 83 0 c167 0 156 -2
152 35 -2 17 -4 34 -4 37 -1 5 -511 7 -547 2z"/>
<path d="M3361 680 c-4 -3 -20 -39 -36 -80 -15 -41 -31 -79 -35 -85 -4 -5 -11
-21 -15 -35 -4 -14 -45 -120 -91 -237 -46 -117 -84 -216 -84 -220 0 -4 22 -8
50 -8 l50 -1 40 106 41 105 134 0 c74 0 136 -3 138 -5 2 -3 21 -50 43 -105
l39 -100 48 0 c27 -1 51 3 54 7 2 5 -2 23 -10 41 -8 18 -65 160 -127 317 -62
157 -117 289 -121 294 -9 10 -105 15 -118 6z m142 -317 c14 -35 23 -64 19 -64
-4 -1 -53 -2 -109 -3 -69 -1 -103 2 -103 9 0 6 15 49 34 96 18 46 42 110 52
142 l18 57 31 -87 c18 -49 44 -116 58 -150z"/>
<path d="M3862 675 c-11 -17 -8 -654 3 -658 5 -2 102 -3 215 -3 l205 1 2 38 3
37 -165 0 c-164 0 -165 0 -166 23 0 12 -1 145 -2 296 l-2 274 -43 1 c-24 0
-47 -3 -50 -9z"/>
</g>
</svg>
